# xmcd
#
# Track frame offsets: 
#        150
#        19627
#        35224
#        56746
#        72899
#        89787
#        104817
#        120367
#        134114
#        148981
#
# Disc length: 2143 seconds
#
# Revision: 0
# Processed by: cddbd v1.5.2PL0 Copyright (c) Steve Scherf et al.
# Submitted via: ExactAudioCopy v0.99pb4
#
DISCID=a2085d0a
DTITLE=Kenny Rogers - Best Of Kenny Rogers CD3
DYEAR=2007
DGENRE=Easy Listening
TTITLE0=She Believes in Me
TTITLE1=Through the Years
TTITLE2=Have I Told You Lately (That I Love You)
TTITLE3=I Don't Need You
TTITLE4=Ain't No Sunshine
TTITLE5=I Can't Help Falling in Love
TTITLE6=Unchained Melody
TTITLE7=Love Me Tender
TTITLE8=Misty
TTITLE9=Love Is a Many Splended Thing
EXTD=
EXTT0=
EXTT1=
EXTT2=
EXTT3=
EXTT4=
EXTT5=
EXTT6=
EXTT7=
EXTT8=
EXTT9=
PLAYORDER=
